<svg xmlns="http://www.w3.org/2000/svg" xmlns:xlink="http://www.w3.org/1999/xlink" width="620" zoomAndPan="magnify" viewBox="0 0 464.87997 464.25" height="619" preserveAspectRatio="xMidYMid meet" version="1.0"><defs><clipPath id="634d00ca17"><path d="M 0.839844 0.277344 L 463.59375 0.277344 L 463.59375 463.03125 L 0.839844 463.03125 Z M 0.839844 0.277344 " clip-rule="nonzero"/></clipPath><clipPath id="6bc01d5a5a"><path d="M 121.328125 103.910156 L 343.71875 103.910156 L 343.71875 360 L 121.328125 360 Z M 121.328125 103.910156 " clip-rule="nonzero"/></clipPath></defs><g clip-path="url(#634d00ca17)"><path fill="#ffc619" d="M 463.910156 231.8125 C 463.910156 235.601562 463.816406 239.390625 463.628906 243.171875 C 463.445312 246.957031 463.164062 250.734375 462.792969 254.507812 C 462.421875 258.277344 461.960938 262.039062 461.402344 265.785156 C 460.847656 269.535156 460.199219 273.265625 459.460938 276.984375 C 458.722656 280.699219 457.890625 284.394531 456.96875 288.070312 C 456.050781 291.746094 455.039062 295.398438 453.941406 299.023438 C 452.839844 302.648438 451.652344 306.246094 450.375 309.8125 C 449.097656 313.382812 447.734375 316.914062 446.285156 320.417969 C 444.835938 323.917969 443.300781 327.378906 441.679688 330.804688 C 440.058594 334.230469 438.355469 337.613281 436.570312 340.957031 C 434.785156 344.296875 432.917969 347.59375 430.96875 350.84375 C 429.019531 354.09375 426.992188 357.296875 424.890625 360.445312 C 422.785156 363.597656 420.601562 366.695312 418.34375 369.738281 C 416.089844 372.78125 413.757812 375.765625 411.355469 378.695312 C 408.949219 381.625 406.476562 384.492188 403.929688 387.300781 C 401.386719 390.109375 398.773438 392.851562 396.09375 395.53125 C 393.414062 398.210938 390.671875 400.824219 387.863281 403.367188 C 385.054688 405.914062 382.1875 408.386719 379.257812 410.789062 C 376.328125 413.195312 373.34375 415.523438 370.300781 417.78125 C 367.257812 420.039062 364.160156 422.222656 361.007812 424.324219 C 357.859375 426.429688 354.65625 428.457031 351.40625 430.40625 C 348.15625 432.355469 344.863281 434.222656 341.519531 436.007812 C 338.179688 437.792969 334.792969 439.496094 331.367188 441.117188 C 327.945312 442.738281 324.480469 444.273438 320.980469 445.722656 C 317.480469 447.171875 313.945312 448.535156 310.375 449.8125 C 306.808594 451.089844 303.210938 452.277344 299.585938 453.375 C 295.960938 454.476562 292.308594 455.488281 288.632812 456.40625 C 284.957031 457.328125 281.261719 458.160156 277.546875 458.898438 C 273.828125 459.636719 270.097656 460.285156 266.347656 460.839844 C 262.601562 461.398438 258.839844 461.859375 255.070312 462.230469 C 251.296875 462.601562 247.519531 462.882812 243.734375 463.066406 C 239.953125 463.253906 236.164062 463.347656 232.375 463.347656 C 228.585938 463.347656 224.800781 463.253906 221.015625 463.066406 C 217.230469 462.882812 213.453125 462.601562 209.679688 462.230469 C 205.910156 461.859375 202.148438 461.398438 198.402344 460.839844 C 194.652344 460.285156 190.921875 459.636719 187.207031 458.898438 C 183.488281 458.160156 179.792969 457.328125 176.117188 456.40625 C 172.441406 455.488281 168.789062 454.476562 165.164062 453.375 C 161.539062 452.277344 157.941406 451.089844 154.375 449.8125 C 150.804688 448.535156 147.273438 447.171875 143.769531 445.722656 C 140.269531 444.273438 136.808594 442.738281 133.382812 441.117188 C 129.957031 439.496094 126.574219 437.792969 123.230469 436.007812 C 119.890625 434.222656 116.59375 432.355469 113.34375 430.40625 C 110.09375 428.457031 106.890625 426.429688 103.742188 424.324219 C 100.589844 422.222656 97.492188 420.039062 94.449219 417.78125 C 91.40625 415.523438 88.421875 413.195312 85.492188 410.789062 C 82.5625 408.386719 79.695312 405.914062 76.886719 403.367188 C 74.078125 400.824219 71.335938 398.210938 68.65625 395.53125 C 65.976562 392.851562 63.363281 390.109375 60.820312 387.300781 C 58.273438 384.492188 55.800781 381.625 53.398438 378.695312 C 50.992188 375.765625 48.664062 372.78125 46.40625 369.738281 C 44.148438 366.695312 41.96875 363.597656 39.863281 360.445312 C 37.757812 357.296875 35.730469 354.09375 33.78125 350.84375 C 31.832031 347.59375 29.964844 344.296875 28.179688 340.957031 C 26.394531 337.613281 24.691406 334.230469 23.070312 330.804688 C 21.449219 327.378906 19.914062 323.917969 18.464844 320.417969 C 17.015625 316.914062 15.652344 313.382812 14.375 309.8125 C 13.097656 306.246094 11.910156 302.648438 10.8125 299.023438 C 9.710938 295.398438 8.699219 291.746094 7.78125 288.070312 C 6.859375 284.394531 6.027344 280.699219 5.289062 276.984375 C 4.550781 273.265625 3.902344 269.535156 3.347656 265.785156 C 2.792969 262.039062 2.328125 258.277344 1.957031 254.507812 C 1.585938 250.734375 1.304688 246.957031 1.121094 243.171875 C 0.933594 239.390625 0.839844 235.601562 0.839844 231.8125 C 0.839844 228.023438 0.933594 224.238281 1.121094 220.453125 C 1.304688 216.667969 1.585938 212.890625 1.957031 209.117188 C 2.328125 205.347656 2.792969 201.585938 3.347656 197.839844 C 3.902344 194.089844 4.550781 190.359375 5.289062 186.640625 C 6.027344 182.925781 6.859375 179.230469 7.78125 175.554688 C 8.699219 171.878906 9.710938 168.226562 10.8125 164.601562 C 11.910156 160.976562 13.097656 157.378906 14.375 153.8125 C 15.652344 150.242188 17.015625 146.710938 18.464844 143.207031 C 19.914062 139.707031 21.449219 136.246094 23.070312 132.820312 C 24.691406 129.394531 26.394531 126.011719 28.179688 122.667969 C 29.964844 119.328125 31.832031 116.03125 33.78125 112.78125 C 35.730469 109.53125 37.757812 106.328125 39.863281 103.179688 C 41.96875 100.027344 44.148438 96.929688 46.40625 93.886719 C 48.664062 90.84375 50.992188 87.859375 53.398438 84.929688 C 55.800781 82 58.273438 79.132812 60.820312 76.324219 C 63.363281 73.515625 65.976562 70.773438 68.65625 68.09375 C 71.335938 65.414062 74.078125 62.800781 76.886719 60.257812 C 79.695312 57.710938 82.5625 55.238281 85.492188 52.835938 C 88.421875 50.429688 91.40625 48.101562 94.449219 45.84375 C 97.492188 43.585938 100.589844 41.402344 103.742188 39.300781 C 106.890625 37.195312 110.09375 35.167969 113.34375 33.21875 C 116.59375 31.269531 119.890625 29.402344 123.230469 27.617188 C 126.574219 25.832031 129.957031 24.128906 133.382812 22.507812 C 136.808594 20.886719 140.269531 19.351562 143.769531 17.902344 C 147.273438 16.453125 150.804688 15.089844 154.375 13.8125 C 157.941406 12.535156 161.539062 11.347656 165.164062 10.25 C 168.789062 9.148438 172.441406 8.136719 176.117188 7.21875 C 179.792969 6.296875 183.488281 5.464844 187.207031 4.726562 C 190.921875 3.988281 194.652344 3.339844 198.402344 2.785156 C 202.148438 2.226562 205.910156 1.765625 209.679688 1.394531 C 213.453125 1.023438 217.230469 0.742188 221.015625 0.558594 C 224.800781 0.371094 228.585938 0.277344 232.375 0.277344 C 236.164062 0.277344 239.953125 0.371094 243.734375 0.558594 C 247.519531 0.742188 251.296875 1.023438 255.070312 1.394531 C 258.839844 1.765625 262.601562 2.226562 266.347656 2.785156 C 270.097656 3.339844 273.828125 3.988281 277.546875 4.726562 C 281.261719 5.464844 284.957031 6.296875 288.632812 7.21875 C 292.308594 8.136719 295.960938 9.148438 299.585938 10.25 C 303.210938 11.347656 306.808594 12.535156 310.375 13.8125 C 313.945312 15.089844 317.480469 16.453125 320.980469 17.902344 C 324.480469 19.351562 327.945312 20.886719 331.367188 22.507812 C 334.792969 24.128906 338.179688 25.832031 341.519531 27.617188 C 344.863281 29.402344 348.15625 31.269531 351.40625 33.21875 C 354.65625 35.167969 357.859375 37.195312 361.007812 39.300781 C 364.160156 41.402344 367.257812 43.585938 370.300781 45.84375 C 373.34375 48.101562 376.328125 50.429688 379.257812 52.835938 C 382.1875 55.238281 385.054688 57.710938 387.863281 60.257812 C 390.671875 62.800781 393.414062 65.414062 396.09375 68.09375 C 398.773438 70.773438 401.386719 73.515625 403.929688 76.324219 C 406.476562 79.132812 408.949219 82 411.355469 84.929688 C 413.757812 87.859375 416.089844 90.84375 418.34375 93.886719 C 420.601562 96.929688 422.785156 100.027344 424.890625 103.179688 C 426.992188 106.328125 429.019531 109.53125 430.96875 112.78125 C 432.917969 116.03125 434.785156 119.328125 436.570312 122.667969 C 438.355469 126.011719 440.058594 129.394531 441.679688 132.820312 C 443.300781 136.246094 444.835938 139.707031 446.285156 143.207031 C 447.734375 146.710938 449.097656 150.242188 450.375 153.8125 C 451.652344 157.378906 452.839844 160.976562 453.941406 164.601562 C 455.039062 168.226562 456.050781 171.878906 456.96875 175.554688 C 457.890625 179.230469 458.722656 182.925781 459.460938 186.640625 C 460.199219 190.359375 460.847656 194.089844 461.402344 197.839844 C 461.960938 201.585938 462.421875 205.347656 462.792969 209.117188 C 463.164062 212.890625 463.445312 216.667969 463.628906 220.453125 C 463.816406 224.238281 463.910156 228.023438 463.910156 231.8125 Z M 463.910156 231.8125 " fill-opacity="1" fill-rule="nonzero"/></g><g clip-path="url(#6bc01d5a5a)"><path fill="#1c1c1c" d="M 343.382812 103.621094 L 343.382812 360 L 121.359375 231.808594 Z M 336.5625 348.152344 L 336.5625 115.464844 L 135.050781 231.808594 Z M 336.5625 348.152344 " fill-opacity="1" fill-rule="nonzero"/></g></svg>