<svg xmlns="http://www.w3.org/2000/svg" xmlns:xlink="http://www.w3.org/1999/xlink" width="250" zoomAndPan="magnify" viewBox="0 0 1090.5 464.999988" height="auto" preserveAspectRatio="xMidYMid meet" version="1.0"><defs><g/><clipPath id="791ded5865"><path d="M 0.140625 0.695312 L 463.425781 0.695312 L 463.425781 463.984375 L 0.140625 463.984375 Z M 0.140625 0.695312 " clip-rule="nonzero"/></clipPath><clipPath id="d1de34acf4"><path d="M 64.230469 170.0625 L 172.929688 170.0625 L 172.929688 295.253906 L 64.230469 295.253906 Z M 64.230469 170.0625 " clip-rule="nonzero"/></clipPath></defs><g clip-path="url(#791ded5865)"><path fill="#ffc619" d="M 463.742188 232.5 C 463.742188 236.292969 463.652344 240.082031 463.464844 243.871094 C 463.277344 247.660156 463 251.445312 462.628906 255.21875 C 462.253906 258.992188 461.792969 262.757812 461.234375 266.511719 C 460.679688 270.261719 460.03125 274 459.289062 277.71875 C 458.550781 281.441406 457.71875 285.140625 456.796875 288.820312 C 455.875 292.5 454.863281 296.15625 453.761719 299.785156 C 452.660156 303.417969 451.472656 307.019531 450.191406 310.589844 C 448.914062 314.160156 447.550781 317.699219 446.097656 321.203125 C 444.648438 324.710938 443.109375 328.175781 441.488281 331.605469 C 439.867188 335.035156 438.160156 338.421875 436.371094 341.769531 C 434.585938 345.113281 432.714844 348.414062 430.765625 351.667969 C 428.8125 354.921875 426.785156 358.125 424.679688 361.28125 C 422.570312 364.433594 420.386719 367.535156 418.125 370.582031 C 415.867188 373.628906 413.535156 376.621094 411.125 379.550781 C 408.71875 382.484375 406.242188 385.355469 403.695312 388.167969 C 401.148438 390.976562 398.53125 393.722656 395.851562 396.40625 C 393.167969 399.089844 390.421875 401.703125 387.609375 404.253906 C 384.800781 406.800781 381.925781 409.277344 378.996094 411.683594 C 376.0625 414.089844 373.074219 416.421875 370.027344 418.683594 C 366.980469 420.941406 363.878906 423.125 360.722656 425.234375 C 357.570312 427.34375 354.367188 429.371094 351.113281 431.320312 C 347.859375 433.273438 344.558594 435.140625 341.210938 436.929688 C 337.867188 438.71875 334.480469 440.421875 331.050781 442.042969 C 327.621094 443.667969 324.152344 445.203125 320.648438 446.65625 C 317.144531 448.105469 313.605469 449.472656 310.035156 450.75 C 306.460938 452.027344 302.859375 453.21875 299.230469 454.320312 C 295.601562 455.417969 291.945312 456.429688 288.265625 457.351562 C 284.585938 458.273438 280.882812 459.105469 277.164062 459.847656 C 273.441406 460.585938 269.707031 461.234375 265.953125 461.792969 C 262.203125 462.347656 258.4375 462.8125 254.664062 463.183594 C 250.886719 463.554688 247.105469 463.835938 243.316406 464.019531 C 239.527344 464.207031 235.734375 464.300781 231.941406 464.300781 C 228.148438 464.300781 224.355469 464.207031 220.566406 464.019531 C 216.777344 463.835938 212.996094 463.554688 209.222656 463.183594 C 205.445312 462.8125 201.683594 462.347656 197.929688 461.792969 C 194.175781 461.234375 190.441406 460.585938 186.71875 459.847656 C 183 459.105469 179.296875 458.273438 175.617188 457.351562 C 171.9375 456.429688 168.285156 455.417969 164.652344 454.320312 C 161.023438 453.21875 157.421875 452.027344 153.851562 450.75 C 150.277344 449.472656 146.738281 448.105469 143.234375 446.65625 C 139.730469 445.203125 136.261719 443.667969 132.832031 442.042969 C 129.402344 440.421875 126.015625 438.71875 122.671875 436.929688 C 119.324219 435.140625 116.027344 433.273438 112.773438 431.320312 C 109.519531 429.371094 106.3125 427.34375 103.160156 425.234375 C 100.003906 423.125 96.90625 420.941406 93.855469 418.683594 C 90.808594 416.421875 87.820312 414.089844 84.886719 411.683594 C 81.957031 409.277344 79.082031 406.800781 76.273438 404.253906 C 73.460938 401.703125 70.714844 399.089844 68.03125 396.40625 C 65.351562 393.722656 62.734375 390.976562 60.1875 388.167969 C 57.640625 385.355469 55.164062 382.484375 52.757812 379.550781 C 50.351562 376.621094 48.015625 373.628906 45.757812 370.582031 C 43.496094 367.535156 41.3125 364.433594 39.207031 361.28125 C 37.097656 358.125 35.070312 354.921875 33.117188 351.667969 C 31.167969 348.414062 29.300781 345.113281 27.511719 341.769531 C 25.722656 338.421875 24.015625 335.035156 22.394531 331.605469 C 20.773438 328.175781 19.238281 324.710938 17.785156 321.203125 C 16.332031 317.699219 14.96875 314.160156 13.691406 310.589844 C 12.410156 307.019531 11.222656 303.417969 10.121094 299.785156 C 9.019531 296.15625 8.007812 292.5 7.085938 288.820312 C 6.164062 285.140625 5.332031 281.441406 4.59375 277.71875 C 3.855469 274 3.207031 270.261719 2.648438 266.511719 C 2.09375 262.757812 1.628906 258.992188 1.257812 255.21875 C 0.882812 251.445312 0.605469 247.660156 0.417969 243.871094 C 0.234375 240.082031 0.140625 236.292969 0.140625 232.5 C 0.140625 228.703125 0.234375 224.914062 0.417969 221.125 C 0.605469 217.335938 0.882812 213.554688 1.257812 209.777344 C 1.628906 206.003906 2.09375 202.238281 2.648438 198.484375 C 3.207031 194.734375 3.855469 190.996094 4.59375 187.277344 C 5.332031 183.554688 6.164062 179.855469 7.085938 176.175781 C 8.007812 172.496094 9.019531 168.839844 10.121094 165.210938 C 11.222656 161.578125 12.410156 157.976562 13.691406 154.40625 C 14.96875 150.835938 16.332031 147.296875 17.785156 143.792969 C 19.238281 140.285156 20.773438 136.820312 22.394531 133.390625 C 24.015625 129.960938 25.722656 126.574219 27.511719 123.226562 C 29.300781 119.882812 31.167969 116.582031 33.117188 113.328125 C 35.070312 110.074219 37.097656 106.871094 39.207031 103.714844 C 41.3125 100.5625 43.496094 97.460938 45.757812 94.414062 C 48.015625 91.367188 50.351562 88.378906 52.757812 85.445312 C 55.164062 82.511719 57.640625 79.640625 60.1875 76.828125 C 62.734375 74.019531 65.351562 71.273438 68.03125 68.589844 C 70.714844 65.90625 73.460938 63.292969 76.273438 60.746094 C 79.082031 58.195312 81.957031 55.71875 84.886719 53.3125 C 87.820312 50.90625 90.808594 48.574219 93.855469 46.3125 C 96.90625 44.054688 100.003906 41.871094 103.160156 39.761719 C 106.3125 37.652344 109.519531 35.625 112.773438 33.675781 C 116.027344 31.726562 119.324219 29.855469 122.671875 28.066406 C 126.015625 26.277344 129.402344 24.574219 132.832031 22.953125 C 136.261719 21.328125 139.730469 19.792969 143.234375 18.339844 C 146.738281 16.890625 150.277344 15.523438 153.851562 14.246094 C 157.421875 12.96875 161.023438 11.777344 164.652344 10.675781 C 168.285156 9.578125 171.9375 8.566406 175.617188 7.644531 C 179.296875 6.722656 183 5.890625 186.71875 5.148438 C 190.441406 4.410156 194.175781 3.761719 197.929688 3.207031 C 201.683594 2.648438 205.445312 2.183594 209.222656 1.8125 C 212.996094 1.441406 216.777344 1.160156 220.566406 0.976562 C 224.355469 0.789062 228.148438 0.695312 231.941406 0.695312 C 235.734375 0.695312 239.527344 0.789062 243.316406 0.976562 C 247.105469 1.160156 250.886719 1.441406 254.664062 1.8125 C 258.4375 2.183594 262.203125 2.648438 265.953125 3.207031 C 269.707031 3.761719 273.441406 4.410156 277.164062 5.148438 C 280.882812 5.890625 284.585938 6.722656 288.265625 7.644531 C 291.945312 8.566406 295.601562 9.578125 299.230469 10.675781 C 302.859375 11.777344 306.460938 12.96875 310.035156 14.246094 C 313.605469 15.523438 317.144531 16.890625 320.648438 18.339844 C 324.152344 19.792969 327.621094 21.328125 331.050781 22.953125 C 334.480469 24.574219 337.867188 26.277344 341.210938 28.066406 C 344.558594 29.855469 347.859375 31.726562 351.113281 33.675781 C 354.367188 35.625 357.570312 37.652344 360.722656 39.761719 C 363.878906 41.871094 366.980469 44.054688 370.027344 46.3125 C 373.074219 48.574219 376.0625 50.90625 378.996094 53.3125 C 381.925781 55.71875 384.800781 58.195312 387.609375 60.746094 C 390.421875 63.292969 393.167969 65.90625 395.851562 68.589844 C 398.53125 71.273438 401.148438 74.019531 403.695312 76.828125 C 406.242188 79.640625 408.71875 82.511719 411.125 85.445312 C 413.535156 88.378906 415.867188 91.367188 418.125 94.414062 C 420.386719 97.460938 422.570312 100.5625 424.679688 103.714844 C 426.785156 106.871094 428.8125 110.074219 430.765625 113.328125 C 432.714844 116.582031 434.585938 119.882812 436.371094 123.226562 C 438.160156 126.574219 439.867188 129.960938 441.488281 133.390625 C 443.109375 136.820312 444.648438 140.285156 446.097656 143.792969 C 447.550781 147.296875 448.914062 150.835938 450.191406 154.40625 C 451.472656 157.976562 452.660156 161.578125 453.761719 165.210938 C 454.863281 168.839844 455.875 172.496094 456.796875 176.175781 C 457.71875 179.855469 458.550781 183.554688 459.289062 187.277344 C 460.03125 190.996094 460.679688 194.734375 461.234375 198.484375 C 461.792969 202.238281 462.253906 206.003906 462.628906 209.777344 C 463 213.554688 463.277344 217.335938 463.464844 221.125 C 463.652344 224.914062 463.742188 228.703125 463.742188 232.5 Z M 463.742188 232.5 " fill-opacity="1" fill-rule="nonzero"/></g><g clip-path="url(#d1de34acf4)"><path fill="#1c1c1c" d="M 172.9375 169.746094 L 172.9375 295.253906 L 64.246094 232.5 Z M 169.597656 289.457031 L 169.597656 175.542969 L 70.945312 232.5 Z M 169.597656 289.457031 " fill-opacity="1" fill-rule="nonzero"/></g><g fill="#1c1c1c" fill-opacity="1"><g transform="translate(206.172759, 277.479359)"><g><path d="M 20.140625 -79.65625 C 15.640625 -79.65625 12.023438 -80.890625 9.296875 -83.359375 C 6.566406 -85.828125 5.203125 -88.921875 5.203125 -92.640625 C 5.203125 -96.453125 6.566406 -99.613281 9.296875 -102.125 C 12.023438 -104.644531 15.640625 -105.90625 20.140625 -105.90625 C 24.554688 -105.90625 28.128906 -104.644531 30.859375 -102.125 C 33.585938 -99.613281 34.953125 -96.453125 34.953125 -92.640625 C 34.953125 -88.921875 33.585938 -85.828125 30.859375 -83.359375 C 28.128906 -80.890625 24.554688 -79.65625 20.140625 -79.65625 Z M 32.75 -72.890625 L 32.75 0 L 7.28125 0 L 7.28125 -72.890625 Z M 32.75 -72.890625 "/></g></g></g><g fill="#1c1c1c" fill-opacity="1"><g transform="translate(246.193211, 277.479359)"><g><path d="M 54.96875 -73.546875 C 63.363281 -73.546875 70.03125 -70.75 74.96875 -65.15625 C 79.90625 -59.570312 82.375 -52.015625 82.375 -42.484375 L 82.375 0 L 56.90625 0 L 56.90625 -39.109375 C 56.90625 -43.265625 55.820312 -46.535156 53.65625 -48.921875 C 51.5 -51.304688 48.597656 -52.5 44.953125 -52.5 C 41.140625 -52.5 38.148438 -51.304688 35.984375 -48.921875 C 33.828125 -46.535156 32.75 -43.265625 32.75 -39.109375 L 32.75 0 L 7.28125 0 L 7.28125 -72.890625 L 32.75 -72.890625 L 32.75 -62.5 C 35 -65.789062 38.03125 -68.453125 41.84375 -70.484375 C 45.65625 -72.523438 50.03125 -73.546875 54.96875 -73.546875 Z M 54.96875 -73.546875 "/></g></g></g><g fill="#1c1c1c" fill-opacity="1"><g transform="translate(335.32968, 277.479359)"><g><path d="M 46.640625 -51.71875 L 35.21875 -51.71875 L 35.21875 0 L 9.609375 0 L 9.609375 -51.71875 L 1.6875 -51.71875 L 1.6875 -72.890625 L 9.609375 -72.890625 L 9.609375 -73.546875 C 9.609375 -82.898438 12.359375 -90.066406 17.859375 -95.046875 C 23.367188 -100.023438 31.273438 -102.515625 41.578125 -102.515625 C 43.660156 -102.515625 45.265625 -102.472656 46.390625 -102.390625 L 46.390625 -80.6875 C 45.691406 -80.78125 44.738281 -80.828125 43.53125 -80.828125 C 40.757812 -80.828125 38.722656 -80.195312 37.421875 -78.9375 C 36.117188 -77.675781 35.382812 -75.660156 35.21875 -72.890625 L 46.640625 -72.890625 Z M 46.640625 -51.71875 "/></g></g></g><g fill="#1c1c1c" fill-opacity="1"><g transform="translate(383.796004, 277.479359)"><g><path d="M 41.1875 0.90625 C 33.914062 0.90625 27.398438 -0.609375 21.640625 -3.640625 C 15.878906 -6.671875 11.351562 -11 8.0625 -16.625 C 4.769531 -22.257812 3.125 -28.890625 3.125 -36.515625 C 3.125 -44.046875 4.789062 -50.625 8.125 -56.25 C 11.457031 -61.882812 16.003906 -66.21875 21.765625 -69.25 C 27.523438 -72.28125 34.039062 -73.796875 41.3125 -73.796875 C 48.59375 -73.796875 55.113281 -72.28125 60.875 -69.25 C 66.632812 -66.21875 71.179688 -61.882812 74.515625 -56.25 C 77.847656 -50.625 79.515625 -44.046875 79.515625 -36.515625 C 79.515625 -28.972656 77.847656 -22.363281 74.515625 -16.6875 C 71.179688 -11.019531 66.613281 -6.671875 60.8125 -3.640625 C 55.007812 -0.609375 48.46875 0.90625 41.1875 0.90625 Z M 41.1875 -21.1875 C 44.738281 -21.1875 47.707031 -22.503906 50.09375 -25.140625 C 52.476562 -27.785156 53.671875 -31.578125 53.671875 -36.515625 C 53.671875 -41.453125 52.476562 -45.21875 50.09375 -47.8125 C 47.707031 -50.414062 44.78125 -51.71875 41.3125 -51.71875 C 37.851562 -51.71875 34.953125 -50.414062 32.609375 -47.8125 C 30.273438 -45.21875 29.109375 -41.453125 29.109375 -36.515625 C 29.109375 -31.484375 30.234375 -27.671875 32.484375 -25.078125 C 34.734375 -22.484375 37.632812 -21.1875 41.1875 -21.1875 Z M 41.1875 -21.1875 "/></g></g></g><g fill="#1c1c1c" fill-opacity="1"><g transform="translate(466.435642, 277.479359)"><g><path d="M 43.53125 -91.609375 C 53.144531 -91.609375 61.566406 -89.679688 68.796875 -85.828125 C 76.035156 -81.972656 81.601562 -76.578125 85.5 -69.640625 C 89.394531 -62.710938 91.34375 -54.789062 91.34375 -45.875 C 91.34375 -37.03125 89.367188 -29.144531 85.421875 -22.21875 C 81.484375 -15.289062 75.898438 -9.851562 68.671875 -5.90625 C 61.441406 -1.96875 53.0625 0 43.53125 0 L 7.28125 0 L 7.28125 -91.609375 Z M 41.578125 -22.484375 C 49.023438 -22.484375 54.867188 -24.515625 59.109375 -28.578125 C 63.359375 -32.648438 65.484375 -38.414062 65.484375 -45.875 C 65.484375 -53.40625 63.359375 -59.226562 59.109375 -63.34375 C 54.867188 -67.457031 49.023438 -69.515625 41.578125 -69.515625 L 32.75 -69.515625 L 32.75 -22.484375 Z M 41.578125 -22.484375 "/></g></g></g><g fill="#1c1c1c" fill-opacity="1"><g transform="translate(561.939007, 277.479359)"><g><path d="M 76.921875 -37.296875 C 76.921875 -35.296875 76.789062 -33.300781 76.53125 -31.3125 L 28.328125 -31.3125 C 28.585938 -27.332031 29.691406 -24.363281 31.640625 -22.40625 C 33.585938 -20.457031 36.078125 -19.484375 39.109375 -19.484375 C 43.359375 -19.484375 46.390625 -21.390625 48.203125 -25.203125 L 75.359375 -25.203125 C 74.234375 -20.179688 72.046875 -15.695312 68.796875 -11.75 C 65.546875 -7.8125 61.453125 -4.71875 56.515625 -2.46875 C 51.578125 -0.21875 46.125 0.90625 40.15625 0.90625 C 32.957031 0.90625 26.566406 -0.609375 20.984375 -3.640625 C 15.398438 -6.671875 11.023438 -11 7.859375 -16.625 C 4.703125 -22.257812 3.125 -28.890625 3.125 -36.515625 C 3.125 -44.140625 4.679688 -50.742188 7.796875 -56.328125 C 10.910156 -61.910156 15.257812 -66.21875 20.84375 -69.25 C 26.4375 -72.28125 32.875 -73.796875 40.15625 -73.796875 C 47.34375 -73.796875 53.707031 -72.320312 59.25 -69.375 C 64.789062 -66.4375 69.117188 -62.21875 72.234375 -56.71875 C 75.359375 -51.21875 76.921875 -44.742188 76.921875 -37.296875 Z M 50.9375 -43.65625 C 50.9375 -46.78125 49.894531 -49.226562 47.8125 -51 C 45.738281 -52.78125 43.140625 -53.671875 40.015625 -53.671875 C 36.898438 -53.671875 34.34375 -52.820312 32.34375 -51.125 C 30.351562 -49.4375 29.054688 -46.945312 28.453125 -43.65625 Z M 50.9375 -43.65625 "/></g></g></g><g fill="#1c1c1c" fill-opacity="1"><g transform="translate(641.979911, 277.479359)"><g><path d="M 38.328125 0.90625 C 31.742188 0.90625 25.875 -0.195312 20.71875 -2.40625 C 15.570312 -4.613281 11.503906 -7.644531 8.515625 -11.5 C 5.523438 -15.351562 3.859375 -19.707031 3.515625 -24.5625 L 28.203125 -24.5625 C 28.546875 -22.21875 29.625 -20.394531 31.4375 -19.09375 C 33.257812 -17.800781 35.515625 -17.15625 38.203125 -17.15625 C 40.273438 -17.15625 41.914062 -17.585938 43.125 -18.453125 C 44.34375 -19.316406 44.953125 -20.441406 44.953125 -21.828125 C 44.953125 -23.648438 43.957031 -24.992188 41.96875 -25.859375 C 39.976562 -26.722656 36.6875 -27.675781 32.09375 -28.71875 C 26.894531 -29.757812 22.5625 -30.925781 19.09375 -32.21875 C 15.632812 -33.519531 12.625 -35.644531 10.0625 -38.59375 C 7.507812 -41.539062 6.234375 -45.523438 6.234375 -50.546875 C 6.234375 -54.878906 7.398438 -58.796875 9.734375 -62.296875 C 12.078125 -65.804688 15.519531 -68.597656 20.0625 -70.671875 C 24.613281 -72.753906 30.097656 -73.796875 36.515625 -73.796875 C 46.046875 -73.796875 53.535156 -71.457031 58.984375 -66.78125 C 64.441406 -62.101562 67.609375 -55.957031 68.484375 -48.34375 L 45.484375 -48.34375 C 45.046875 -50.675781 44.023438 -52.46875 42.421875 -53.71875 C 40.816406 -54.976562 38.675781 -55.609375 36 -55.609375 C 33.914062 -55.609375 32.332031 -55.21875 31.25 -54.4375 C 30.164062 -53.664062 29.625 -52.585938 29.625 -51.203125 C 29.625 -49.460938 30.617188 -48.140625 32.609375 -47.234375 C 34.609375 -46.328125 37.816406 -45.394531 42.234375 -44.4375 C 47.515625 -43.3125 51.910156 -42.054688 55.421875 -40.671875 C 58.929688 -39.285156 62.003906 -37.050781 64.640625 -33.96875 C 67.285156 -30.894531 68.609375 -26.71875 68.609375 -21.4375 C 68.609375 -17.195312 67.375 -13.382812 64.90625 -10 C 62.4375 -6.625 58.925781 -3.960938 54.375 -2.015625 C 49.832031 -0.0664062 44.484375 0.90625 38.328125 0.90625 Z M 38.328125 0.90625 "/></g></g></g><g fill="#1c1c1c" fill-opacity="1"><g transform="translate(715.783852, 277.479359)"><g><path d="M 20.140625 -79.65625 C 15.640625 -79.65625 12.023438 -80.890625 9.296875 -83.359375 C 6.566406 -85.828125 5.203125 -88.921875 5.203125 -92.640625 C 5.203125 -96.453125 6.566406 -99.613281 9.296875 -102.125 C 12.023438 -104.644531 15.640625 -105.90625 20.140625 -105.90625 C 24.554688 -105.90625 28.128906 -104.644531 30.859375 -102.125 C 33.585938 -99.613281 34.953125 -96.453125 34.953125 -92.640625 C 34.953125 -88.921875 33.585938 -85.828125 30.859375 -83.359375 C 28.128906 -80.890625 24.554688 -79.65625 20.140625 -79.65625 Z M 32.75 -72.890625 L 32.75 0 L 7.28125 0 L 7.28125 -72.890625 Z M 32.75 -72.890625 "/></g></g></g><g fill="#1c1c1c" fill-opacity="1"><g transform="translate(755.804304, 277.479359)"><g><path d="M 34.171875 -73.796875 C 39.109375 -73.796875 43.414062 -72.800781 47.09375 -70.8125 C 50.78125 -68.820312 53.617188 -66.140625 55.609375 -62.765625 L 55.609375 -72.890625 L 81.078125 -72.890625 L 81.078125 -0.78125 C 81.078125 6.0625 79.773438 12.234375 77.171875 17.734375 C 74.578125 23.234375 70.53125 27.628906 65.03125 30.921875 C 59.53125 34.210938 52.578125 35.859375 44.171875 35.859375 C 32.910156 35.859375 23.898438 33.21875 17.140625 27.9375 C 10.390625 22.65625 6.539062 15.460938 5.59375 6.359375 L 30.671875 6.359375 C 31.179688 8.703125 32.476562 10.519531 34.5625 11.8125 C 36.644531 13.113281 39.332031 13.765625 42.625 13.765625 C 51.28125 13.765625 55.609375 8.914062 55.609375 -0.78125 L 55.609375 -10.140625 C 53.617188 -6.753906 50.78125 -4.066406 47.09375 -2.078125 C 43.414062 -0.0859375 39.109375 0.90625 34.171875 0.90625 C 28.367188 0.90625 23.101562 -0.609375 18.375 -3.640625 C 13.65625 -6.671875 9.929688 -11.019531 7.203125 -16.6875 C 4.484375 -22.363281 3.125 -28.972656 3.125 -36.515625 C 3.125 -44.046875 4.484375 -50.625 7.203125 -56.25 C 9.929688 -61.882812 13.65625 -66.21875 18.375 -69.25 C 23.101562 -72.28125 28.367188 -73.796875 34.171875 -73.796875 Z M 55.609375 -36.515625 C 55.609375 -41.191406 54.332031 -44.867188 51.78125 -47.546875 C 49.226562 -50.234375 46.085938 -51.578125 42.359375 -51.578125 C 38.546875 -51.578125 35.382812 -50.253906 32.875 -47.609375 C 30.363281 -44.972656 29.109375 -41.273438 29.109375 -36.515625 C 29.109375 -31.835938 30.363281 -28.132812 32.875 -25.40625 C 35.382812 -22.675781 38.546875 -21.3125 42.359375 -21.3125 C 46.085938 -21.3125 49.226562 -22.648438 51.78125 -25.328125 C 54.332031 -28.015625 55.609375 -31.742188 55.609375 -36.515625 Z M 55.609375 -36.515625 "/></g></g></g><g fill="#1c1c1c" fill-opacity="1"><g transform="translate(844.161158, 277.479359)"><g><path d="M 54.96875 -73.546875 C 63.363281 -73.546875 70.03125 -70.75 74.96875 -65.15625 C 79.90625 -59.570312 82.375 -52.015625 82.375 -42.484375 L 82.375 0 L 56.90625 0 L 56.90625 -39.109375 C 56.90625 -43.265625 55.820312 -46.535156 53.65625 -48.921875 C 51.5 -51.304688 48.597656 -52.5 44.953125 -52.5 C 41.140625 -52.5 38.148438 -51.304688 35.984375 -48.921875 C 33.828125 -46.535156 32.75 -43.265625 32.75 -39.109375 L 32.75 0 L 7.28125 0 L 7.28125 -72.890625 L 32.75 -72.890625 L 32.75 -62.5 C 35 -65.789062 38.03125 -68.453125 41.84375 -70.484375 C 45.65625 -72.523438 50.03125 -73.546875 54.96875 -73.546875 Z M 54.96875 -73.546875 "/></g></g></g></svg>