<svg xmlns="http://www.w3.org/2000/svg" xmlns:xlink="http://www.w3.org/1999/xlink" width="500" zoomAndPan="magnify" viewBox="0 0 375 374.999991" height="500" preserveAspectRatio="xMidYMid meet" version="1.0"><defs><g/><clipPath id="b322a83d11"><path d="M 46.738281 183 L 119.488281 183 L 119.488281 214.714844 L 46.738281 214.714844 Z M 46.738281 183 " clip-rule="nonzero"/></clipPath><clipPath id="1206d44156"><path d="M 93 156.964844 L 103 156.964844 L 103 198 L 93 198 Z M 93 156.964844 " clip-rule="nonzero"/></clipPath></defs><rect x="-37.5" width="450" fill="#ffffff" y="-37.499999" height="449.999989" fill-opacity="1"/><rect x="-37.5" width="450" fill="#09429c" y="-37.499999" height="449.999989" fill-opacity="1"/><g clip-path="url(#b322a83d11)"><path fill="#ffffff" d="M 118.75 183.839844 L 110.035156 184 C 109.628906 184.003906 109.394531 184.464844 109.628906 184.800781 L 110.976562 186.726562 C 110.996094 186.753906 110.988281 186.789062 110.964844 186.808594 L 82.050781 207.347656 C 82.011719 207.375 81.960938 207.347656 81.960938 207.300781 L 81.960938 191.652344 C 81.960938 191.445312 81.851562 191.253906 81.671875 191.148438 C 81.496094 191.042969 81.277344 191.039062 81.09375 191.136719 L 47.0625 209.644531 C 46.925781 209.71875 46.824219 209.84375 46.777344 209.992188 C 46.734375 210.140625 46.75 210.300781 46.824219 210.4375 L 48.28125 213.113281 C 48.433594 213.394531 48.789062 213.5 49.074219 213.347656 L 77.660156 197.804688 C 77.699219 197.78125 77.742188 197.808594 77.742188 197.851562 L 77.742188 214.402344 C 77.742188 214.570312 77.796875 214.742188 77.914062 214.859375 C 78.035156 214.972656 78.179688 215.03125 78.328125 215.03125 C 78.449219 215.03125 78.566406 214.992188 78.667969 214.921875 L 113.378906 190.261719 C 113.40625 190.242188 113.441406 190.25 113.457031 190.277344 L 115.207031 192.773438 C 115.441406 193.109375 115.953125 193.046875 116.101562 192.664062 L 119.234375 184.535156 C 119.367188 184.195312 119.113281 183.832031 118.75 183.839844 " fill-opacity="1" fill-rule="nonzero"/></g><path fill="#ffffff" d="M 68.585938 173.238281 L 68.585938 196.171875 C 68.585938 196.191406 68.574219 196.210938 68.554688 196.222656 L 60.296875 200.714844 C 60.261719 200.734375 60.214844 200.707031 60.214844 200.664062 L 60.214844 173.238281 C 60.214844 173.207031 60.238281 173.183594 60.269531 173.183594 L 68.527344 173.183594 C 68.558594 173.183594 68.585938 173.207031 68.585938 173.238281 " fill-opacity="1" fill-rule="nonzero"/><g clip-path="url(#1206d44156)"><path fill="#ffffff" d="M 102.0625 157.039062 L 102.0625 191.234375 C 102.0625 191.25 102.054688 191.269531 102.039062 191.277344 L 93.78125 197.144531 C 93.742188 197.171875 93.691406 197.144531 93.691406 197.097656 L 93.691406 157.039062 C 93.691406 157.007812 93.71875 156.980469 93.75 156.980469 L 102.007812 156.980469 C 102.039062 156.980469 102.0625 157.007812 102.0625 157.039062 " fill-opacity="1" fill-rule="nonzero"/></g><path fill="#ffffff" d="M 90.355469 177.921875 L 90.355469 199.550781 C 90.355469 199.566406 90.347656 199.585938 90.332031 199.59375 L 83.574219 204.398438 C 83.535156 204.425781 83.484375 204.398438 83.484375 204.351562 L 83.484375 191.652344 C 83.484375 190.914062 83.085938 190.21875 82.453125 189.839844 C 82.316406 189.761719 82.175781 189.695312 82.027344 189.648438 C 82.003906 189.640625 81.988281 189.621094 81.988281 189.597656 L 81.988281 177.921875 C 81.988281 177.890625 82.015625 177.863281 82.046875 177.863281 L 90.300781 177.863281 C 90.332031 177.863281 90.355469 177.890625 90.355469 177.921875 " fill-opacity="1" fill-rule="nonzero"/><path fill="#ffffff" d="M 79.472656 163.792969 L 79.472656 190.253906 C 79.472656 190.273438 79.460938 190.292969 79.441406 190.304688 L 71.1875 194.792969 C 71.148438 194.8125 71.101562 194.785156 71.101562 194.742188 L 71.101562 163.792969 C 71.101562 163.761719 71.128906 163.738281 71.160156 163.738281 L 79.414062 163.738281 C 79.445312 163.738281 79.472656 163.761719 79.472656 163.792969 " fill-opacity="1" fill-rule="nonzero"/><g fill="#ffffff" fill-opacity="1"><g transform="translate(133.574732, 225.535209)"><g><path d="M 3.5625 0 L 5.757812 0 L 5.757812 -10.589844 L 9.824219 -10.589844 C 14.21875 -10.589844 16.984375 -12.753906 16.984375 -16.753906 C 16.984375 -20.625 14.21875 -22.984375 9.824219 -22.984375 L 3.5625 -22.984375 Z M 5.757812 -12.492188 L 5.757812 -21.082031 L 9.824219 -21.082031 C 12.964844 -21.082031 14.820312 -19.488281 14.820312 -16.753906 C 14.820312 -13.890625 12.964844 -12.492188 9.824219 -12.492188 Z M 5.757812 -12.492188 "/></g></g></g><g fill="#ffffff" fill-opacity="1"><g transform="translate(152.162259, 225.535209)"><g><path d="M 6.457031 0.324219 C 8.867188 0.324219 11.191406 -0.796875 12.332031 -3.335938 L 12.332031 0 L 14.085938 0 L 14.085938 -9.988281 C 14.085938 -13.957031 11.957031 -16.59375 7.890625 -16.59375 C 5.335938 -16.59375 3.367188 -15.484375 1.9375 -13.484375 L 3.398438 -12.332031 C 4.195312 -13.421875 5.628906 -14.820312 8.070312 -14.820312 C 11.222656 -14.820312 12.265625 -12.492188 12.265625 -9.191406 L 8.652344 -9.191406 C 3.789062 -9.191406 1.332031 -7.597656 1.332031 -4.390625 C 1.332031 -1.429688 3.464844 0.324219 6.457031 0.324219 Z M 6.667969 -1.398438 C 4.929688 -1.398438 3.464844 -2.195312 3.464844 -4.359375 C 3.464844 -6.800781 5.335938 -7.597656 8.898438 -7.597656 L 12.265625 -7.597656 C 12.265625 -4.832031 10.265625 -1.398438 6.667969 -1.398438 Z M 6.667969 -1.398438 "/></g></g></g><g fill="#ffffff" fill-opacity="1"><g transform="translate(168.684505, 225.535209)"><g><path d="M 4.230469 6.996094 L 6.328125 6.996094 L 14.882812 -16.25 L 12.65625 -16.25 L 7.921875 -2.472656 L 2.992188 -16.25 L 0.730469 -16.25 L 6.960938 0 Z M 4.230469 6.996094 "/></g></g></g><g fill="#ffffff" fill-opacity="1"><g transform="translate(133.574732, 189.51246)"><g><path d="M 3.6875 0 L 8.832031 0 L 8.832031 -11.949219 L 21.371094 -11.949219 L 21.371094 0 L 26.515625 0 L 26.515625 -28.621094 L 21.371094 -28.621094 L 21.371094 -16.671875 L 8.832031 -16.671875 L 8.832031 -28.621094 L 3.6875 -28.621094 Z M 3.6875 0 "/></g></g></g><g fill="#ffffff" fill-opacity="1"><g transform="translate(163.759874, 189.51246)"><g><path d="M 8.46875 0.40625 C 10.878906 0.40625 13.023438 -0.363281 14.765625 -2.898438 L 15.089844 0 L 19.160156 0 L 19.160156 -12.273438 C 19.160156 -17.21875 15.921875 -20.660156 10.410156 -20.660156 C 6.421875 -20.660156 3.847656 -18.878906 1.902344 -16.226562 L 5.691406 -13.492188 C 6.5625 -14.96875 8.121094 -16.347656 10.453125 -16.347656 C 13.066406 -16.347656 14.441406 -14.644531 14.441406 -12.074219 L 9.175781 -12.074219 C 4.636719 -12.074219 1.113281 -10.613281 1.113281 -6.21875 C 1.113281 -1.984375 4.316406 0.40625 8.46875 0.40625 Z M 9.175781 -3.765625 C 7.25 -3.765625 6.179688 -4.71875 6.179688 -6.054688 C 6.179688 -7.332031 7.210938 -8.507812 9.460938 -8.507812 L 14.441406 -8.507812 C 14.363281 -5.976562 11.992188 -3.765625 9.175781 -3.765625 Z M 9.175781 -3.765625 "/></g></g></g><g fill="#ffffff" fill-opacity="1"><g transform="translate(185.239714, 189.51246)"><g><path d="M 2.9375 0 L 7.71875 0 L 7.71875 -8.546875 C 7.71875 -13.691406 10.128906 -15.839844 12.4375 -15.839844 C 13.226562 -15.839844 13.976562 -15.597656 14.644531 -15.152344 L 16.894531 -19.203125 C 15.921875 -20.195312 14.523438 -20.660156 13.1875 -20.660156 C 10.917969 -20.660156 8.628906 -19.285156 7.757812 -16.832031 L 7.757812 -20.234375 L 2.9375 -20.234375 Z M 2.9375 0 "/></g></g></g><g fill="#ffffff" fill-opacity="1"><g transform="translate(201.739312, 189.51246)"><g><path d="M 2.9375 0 L 7.921875 0 L 7.921875 -11.121094 C 7.921875 -13.8125 9.5 -16.0625 12.195312 -16.0625 C 14.726562 -16.0625 15.394531 -14.058594 15.394531 -11.605469 L 15.394531 0 L 20.417969 0 L 20.417969 -11.121094 C 20.417969 -13.8125 21.976562 -16.0625 24.652344 -16.0625 C 27.203125 -16.0625 27.914062 -14.015625 27.914062 -11.527344 L 27.914062 0 L 32.9375 0 L 32.9375 -12.152344 C 32.9375 -16.425781 30.648438 -20.660156 25.460938 -20.660156 C 22.847656 -20.660156 20.335938 -19.585938 18.757812 -17.097656 C 17.421875 -19.507812 15.515625 -20.660156 13.066406 -20.660156 C 11.160156 -20.660156 9.257812 -19.953125 7.921875 -18.128906 L 7.921875 -20.234375 L 2.9375 -20.234375 Z M 2.9375 0 "/></g></g></g><g fill="#ffffff" fill-opacity="1"><g transform="translate(237.026166, 189.51246)"><g><path d="M 11.402344 0.40625 C 17.664062 0.40625 21.773438 -4.4375 21.773438 -10.167969 C 21.773438 -15.878906 17.664062 -20.660156 11.402344 -20.660156 C 5.144531 -20.660156 1.03125 -15.878906 1.03125 -10.167969 C 1.03125 -4.4375 5.144531 0.40625 11.402344 0.40625 Z M 11.402344 -3.847656 C 7.675781 -3.847656 6.179688 -6.847656 6.179688 -10.167969 C 6.179688 -13.492188 7.675781 -16.386719 11.402344 -16.386719 C 15.152344 -16.386719 16.628906 -13.492188 16.628906 -10.167969 C 16.628906 -6.847656 15.152344 -3.847656 11.402344 -3.847656 Z M 11.402344 -3.847656 "/></g></g></g><g fill="#ffffff" fill-opacity="1"><g transform="translate(259.8624, 189.51246)"><g><path d="M 2.9375 0 L 7.839844 0 L 7.839844 -11.078125 C 7.839844 -14.605469 9.621094 -16.101562 12.398438 -16.101562 C 14.929688 -16.101562 16.265625 -14.179688 16.265625 -11.527344 L 16.265625 0 L 21.148438 0 L 21.148438 -12.152344 C 21.148438 -16.386719 19.121094 -20.660156 13.8125 -20.660156 C 11.828125 -20.660156 9.460938 -19.871094 7.839844 -17.886719 L 7.839844 -20.234375 L 2.9375 -20.234375 Z M 2.9375 0 "/></g></g></g><g fill="#ffffff" fill-opacity="1"><g transform="translate(283.366729, 189.51246)"><g><path d="M 2.816406 -24.0625 L 7.960938 -24.0625 L 7.960938 -28.621094 L 2.816406 -28.621094 Z M 2.9375 0 L 7.839844 0 L 7.839844 -20.234375 L 2.9375 -20.234375 Z M 2.9375 0 "/></g></g></g><g fill="#ffffff" fill-opacity="1"><g transform="translate(294.137009, 189.51246)"><g><path d="M 18.917969 -20.234375 L 1.660156 -20.234375 L 1.660156 -16.101562 L 12.519531 -16.101562 L 1.074219 -3.28125 L 1.074219 0 L 18.917969 0 L 18.917969 -4.152344 L 7.941406 -4.152344 L 18.917969 -16.710938 Z M 18.917969 -20.234375 "/></g></g></g><g fill="#ffffff" fill-opacity="1"><g transform="translate(314.462876, 189.51246)"><g><path d="M 11.363281 0.40625 C 14.765625 0.40625 17.460938 -0.789062 19.667969 -3.242188 L 16.265625 -6.21875 C 14.847656 -4.636719 13.226562 -4.070312 11.402344 -4.070312 C 8.222656 -4.070312 6.765625 -5.855469 6.339844 -8.507812 L 20.234375 -8.507812 C 20.335938 -8.789062 20.417969 -9.621094 20.417969 -10.453125 C 20.417969 -14.96875 18.128906 -20.660156 11.039062 -20.660156 C 4.191406 -20.660156 1.113281 -15.3125 1.113281 -10.046875 C 1.113281 -4.597656 4.394531 0.40625 11.363281 0.40625 Z M 6.339844 -12.074219 C 6.804688 -14.605469 8.082031 -16.507812 11 -16.507812 C 13.570312 -16.507812 15.230469 -14.96875 15.554688 -12.074219 Z M 6.339844 -12.074219 "/></g></g></g></svg>