<svg xmlns="http://www.w3.org/2000/svg" xmlns:xlink="http://www.w3.org/1999/xlink" width="500" zoomAndPan="magnify" viewBox="0 0 375 374.999991" height="500" preserveAspectRatio="xMidYMid meet" version="1.0"><defs><g/></defs><rect x="-37.5" width="450" fill="#ffffff" y="-37.499999" height="449.999989" fill-opacity="1"/><rect x="-37.5" width="450" fill="#49326b" y="-37.499999" height="449.999989" fill-opacity="1"/><path fill="#000000" d="M 73.058594 252.40625 C 57.367188 239.730469 75.863281 217.96875 80.171875 203.320312 C 82.253906 198.757812 102.472656 150.996094 102.21875 175.667969 C 94.066406 190.101562 87.28125 205.257812 80.890625 220.554688 C 63.976562 253.199219 84.730469 249.105469 106.816406 235.925781 C 111.125 233.699219 115.578125 231.363281 119.851562 229.28125 C 109.1875 242.710938 91.804688 262.390625 73.058594 252.40625 Z M 73.058594 252.40625 " fill-opacity="1" fill-rule="nonzero"/><path fill="#000000" d="M 113.960938 139.507812 C 105.199219 135.234375 114.035156 112.609375 122.292969 122.84375 C 131.054688 126.039062 122.363281 143.636719 113.960938 139.507812 Z M 113.960938 139.507812 " fill-opacity="1" fill-rule="nonzero"/><g fill="#ffffff" fill-opacity="1"><g transform="translate(94.211542, 222.787219)"><g><path d="M 2.9375 0 L 7.839844 0 L 7.839844 -11.078125 C 7.839844 -14.605469 9.621094 -16.101562 12.398438 -16.101562 C 14.929688 -16.101562 16.265625 -14.179688 16.265625 -11.527344 L 16.265625 0 L 21.148438 0 L 21.148438 -12.152344 C 21.148438 -16.386719 19.121094 -20.660156 13.8125 -20.660156 C 11.828125 -20.660156 9.460938 -19.871094 7.839844 -17.886719 L 7.839844 -20.234375 L 2.9375 -20.234375 Z M 2.9375 0 "/></g></g></g><g fill="#ffffff" fill-opacity="1"><g transform="translate(117.715871, 222.787219)"><g><path d="M 4.113281 0 L 9.214844 0 L 9.214844 -16.101562 L 13.9375 -16.101562 L 13.9375 -20.234375 L 9.214844 -20.234375 L 9.214844 -22.445312 C 9.214844 -24.023438 10.085938 -24.652344 11.078125 -24.652344 C 11.605469 -24.652344 12.195312 -24.429688 12.660156 -24.144531 L 14.28125 -28.214844 C 13.1875 -28.703125 11.949219 -29.046875 10.613281 -29.046875 C 7.210938 -29.046875 4.152344 -26.878906 4.152344 -22.949219 L 4.152344 -20.234375 L 0.40625 -20.234375 L 0.40625 -16.101562 L 4.113281 -16.101562 Z M 4.113281 0 "/></g></g></g><g fill="#ffffff" fill-opacity="1"><g transform="translate(131.644354, 222.787219)"><g><path d="M 11.402344 0.40625 C 17.664062 0.40625 21.773438 -4.4375 21.773438 -10.167969 C 21.773438 -15.878906 17.664062 -20.660156 11.402344 -20.660156 C 5.144531 -20.660156 1.03125 -15.878906 1.03125 -10.167969 C 1.03125 -4.4375 5.144531 0.40625 11.402344 0.40625 Z M 11.402344 -3.847656 C 7.675781 -3.847656 6.179688 -6.847656 6.179688 -10.167969 C 6.179688 -13.492188 7.675781 -16.386719 11.402344 -16.386719 C 15.152344 -16.386719 16.628906 -13.492188 16.628906 -10.167969 C 16.628906 -6.847656 15.152344 -3.847656 11.402344 -3.847656 Z M 11.402344 -3.847656 "/></g></g></g><g fill="#ffffff" fill-opacity="1"><g transform="translate(154.480588, 222.787219)"><g><path d="M 2.976562 8.871094 L 8 8.871094 L 8 -2.027344 C 9.417969 -0.285156 11.648438 0.40625 13.773438 0.40625 C 19.363281 0.40625 22.445312 -4.515625 22.445312 -10.128906 C 22.445312 -15.757812 19.363281 -20.660156 13.691406 -20.660156 C 11.527344 -20.660156 9.417969 -19.953125 8 -18.210938 L 8 -20.234375 L 2.976562 -20.234375 Z M 12.476562 -4.152344 C 9.09375 -4.152344 7.554688 -6.726562 7.554688 -10.128906 C 7.554688 -13.53125 9.09375 -16.226562 12.476562 -16.226562 C 15.878906 -16.226562 17.421875 -13.53125 17.421875 -10.128906 C 17.421875 -6.726562 15.878906 -4.152344 12.476562 -4.152344 Z M 12.476562 -4.152344 "/></g></g></g><g fill="#ffffff" fill-opacity="1"><g transform="translate(178.187366, 222.787219)"><g><path d="M 2.9375 0 L 7.71875 0 L 7.71875 -8.546875 C 7.71875 -13.691406 10.128906 -15.839844 12.4375 -15.839844 C 13.226562 -15.839844 13.976562 -15.597656 14.644531 -15.152344 L 16.894531 -19.203125 C 15.921875 -20.195312 14.523438 -20.660156 13.1875 -20.660156 C 10.917969 -20.660156 8.628906 -19.285156 7.757812 -16.832031 L 7.757812 -20.234375 L 2.9375 -20.234375 Z M 2.9375 0 "/></g></g></g><g fill="#ffffff" fill-opacity="1"><g transform="translate(194.686963, 222.787219)"><g><path d="M 11.402344 0.40625 C 17.664062 0.40625 21.773438 -4.4375 21.773438 -10.167969 C 21.773438 -15.878906 17.664062 -20.660156 11.402344 -20.660156 C 5.144531 -20.660156 1.03125 -15.878906 1.03125 -10.167969 C 1.03125 -4.4375 5.144531 0.40625 11.402344 0.40625 Z M 11.402344 -3.847656 C 7.675781 -3.847656 6.179688 -6.847656 6.179688 -10.167969 C 6.179688 -13.492188 7.675781 -16.386719 11.402344 -16.386719 C 15.152344 -16.386719 16.628906 -13.492188 16.628906 -10.167969 C 16.628906 -6.847656 15.152344 -3.847656 11.402344 -3.847656 Z M 11.402344 -3.847656 "/></g></g></g><g fill="#ffffff" fill-opacity="1"><g transform="translate(217.523197, 222.787219)"><g><path d="M 2.898438 -24.0625 L 8.121094 -24.0625 L 8.121094 -28.621094 L 2.898438 -28.621094 Z M 2.105469 8.871094 C 6.179688 8.871094 8 5.8125 8 2.105469 L 8 -20.234375 L 3.039062 -20.234375 L 3.039062 2.492188 C 3.039062 3.765625 2.574219 4.394531 1.621094 4.394531 C 1.15625 4.394531 0.546875 4.234375 -0.160156 3.949219 L -1.417969 8.222656 C -0.585938 8.546875 0.871094 8.871094 2.105469 8.871094 Z M 2.105469 8.871094 "/></g></g></g><g fill="#ffffff" fill-opacity="1"><g transform="translate(228.475695, 222.787219)"><g><path d="M 11.363281 0.40625 C 14.765625 0.40625 17.460938 -0.789062 19.667969 -3.242188 L 16.265625 -6.21875 C 14.847656 -4.636719 13.226562 -4.070312 11.402344 -4.070312 C 8.222656 -4.070312 6.765625 -5.855469 6.339844 -8.507812 L 20.234375 -8.507812 C 20.335938 -8.789062 20.417969 -9.621094 20.417969 -10.453125 C 20.417969 -14.96875 18.128906 -20.660156 11.039062 -20.660156 C 4.191406 -20.660156 1.113281 -15.3125 1.113281 -10.046875 C 1.113281 -4.597656 4.394531 0.40625 11.363281 0.40625 Z M 6.339844 -12.074219 C 6.804688 -14.605469 8.082031 -16.507812 11 -16.507812 C 13.570312 -16.507812 15.230469 -14.96875 15.554688 -12.074219 Z M 6.339844 -12.074219 "/></g></g></g><g fill="#ffffff" fill-opacity="1"><g transform="translate(250.077005, 222.787219)"><g><path d="M 10.957031 0.40625 C 14.96875 0.40625 18.128906 -1.824219 19.464844 -5.589844 L 14.96875 -7.292969 C 14.441406 -5.386719 12.902344 -4.070312 10.917969 -4.070312 C 7.472656 -4.070312 6.179688 -7.007812 6.179688 -10.085938 C 6.179688 -13.105469 7.515625 -16.183594 10.917969 -16.183594 C 12.945312 -16.183594 14.441406 -14.808594 14.96875 -12.863281 L 19.667969 -14.683594 C 18.128906 -18.714844 14.929688 -20.660156 10.917969 -20.660156 C 4.316406 -20.660156 1.15625 -15.394531 1.15625 -10.085938 C 1.15625 -4.71875 4.355469 0.40625 10.957031 0.40625 Z M 10.957031 0.40625 "/></g></g></g><g fill="#ffffff" fill-opacity="1"><g transform="translate(270.402872, 222.787219)"><g><path d="M 10.128906 0.40625 C 11.527344 0.40625 13.023438 0.0820312 13.773438 -0.203125 L 13.773438 -4.679688 C 13.105469 -4.355469 11.992188 -3.949219 10.957031 -3.949219 C 9.660156 -3.949219 8.667969 -4.515625 8.667969 -6.460938 L 8.667969 -16.101562 L 13.773438 -16.101562 L 13.773438 -20.234375 L 8.667969 -20.234375 L 8.667969 -28.785156 L 3.847656 -25.257812 L 3.847656 -20.234375 L 0.507812 -20.234375 L 0.507812 -16.101562 L 3.765625 -16.101562 L 3.765625 -5.589844 C 3.765625 -1.902344 6.136719 0.40625 10.128906 0.40625 Z M 10.128906 0.40625 "/></g></g></g><g fill="#ffffff" fill-opacity="1"><g transform="translate(285.667518, 222.787219)"><g><path d="M 9.035156 0.40625 C 12.863281 0.40625 16.933594 -1.660156 16.933594 -6.339844 C 16.933594 -13.773438 6.644531 -11.949219 6.644531 -15.007812 C 6.644531 -15.960938 7.636719 -16.75 9.257812 -16.75 C 11.445312 -16.75 12.578125 -15.433594 13.265625 -14.179688 L 17.097656 -16.265625 C 15.554688 -19 12.902344 -20.660156 9.417969 -20.660156 C 5.507812 -20.660156 1.902344 -18.636719 1.902344 -14.363281 C 1.902344 -7.210938 12.074219 -9.5 12.074219 -6.097656 C 12.074219 -5.023438 11.078125 -3.6875 8.789062 -3.6875 C 6.097656 -3.6875 5.023438 -5.550781 4.476562 -7.007812 L 0.546875 -5.265625 C 1.539062 -2.148438 4.78125 0.40625 9.035156 0.40625 Z M 9.035156 0.40625 "/></g></g></g></svg>